Patient4_TMGait_0pt2_03_left_20_EMG.mot
version=1
nRows=16
nColumns=33
inDegrees=no
endheader
time	1LAddLong	2LGlutMax	3LGlutMed	4LIliopsoas	5LSemiMemb	6LBicFemLong	7LRecFem	8LVastMed	9LVastLat	10LGasMed	11LTibAnt	12lTibPost	13LPeroneusLong	14LSol	15LExtDigLong	16LFlexDigLong	17RAddLong	18RGlutMax	19RGlutMed	20RIliopsoas	21RSemiMemb	22RBicFemLong	23RRecFem	24RVastMed	25RVastLat	26RGasMed	27RTibAnt	28RTibPost	29RPeroneusLong	30RSol	31RExtDigLong	32RFlexDigLong
44.055	0.007629	-0.034637	-0.03479	-0.005951	0.007477	-0.014343	0.018311	-0.001373	-0.007172	0.009155	0.021973	0.002289	-0.02594	-0.013123	-0.16495	-0.021057	0.049133	-0.046997	0.56686	-0.067444	0.071411	0.10223	-0.067444	0.354	-0.4602	-0.00061	0.033264	-0.026855	-0.037842	0.49744	0.006714	-0.007324
44.056	0.014496	-0.033722	-0.02594	-0.00824	0.010223	-0.006256	0.015259	0.003357	-0.009003	-0.036316	0.006866	-0.004883	0.007477	0.010529	-0.25299	-0.03952	0.065155	-0.044403	0.96115	0.011597	-0.016327	0.047302	0.35858	0.39459	-0.21423	-0.024719	0.049744	-0.027008	0.052338	0.25421	0.002594	-0.000305
44.057	0.002289	-0.019073	-0.092926	0.003967	0.013123	-0.010681	0.015869	0.002136	-0.012512	-0.020599	0.029602	-0.003052	-0.003052	0.022583	-0.15671	-0.039215	0.064392	0.014954	0.94406	-0.019531	-0.039978	-0.028687	0.4657	-0.024109	-0.12894	-0.019379	0.031281	-0.029297	0.10284	0.092163	0.000458	-0.003052
44.058	0.003357	-0.022125	-0.084991	0.009918	0.007935	0.014343	0.008545	-0.001373	-0.018158	-0.004272	0.022125	-0.000458	-0.001221	-0.011139	-0.14084	-0.048981	0.051575	-0.018158	0.42419	-0.047607	-0.00351	-0.029144	0.41336	-0.39505	-0.11414	-0.014648	0.002441	-0.026093	-0.18478	-0.033569	0.000458	-0.002289
44.059	-0.002289	-0.0177	0.010681	0.028534	0.007324	0.007019	0.009918	0.000916	-0.019989	0.00946	-0.01709	-0.002899	0.011749	0.010071	-0.07782	-0.048828	0.032806	-0.1152	-0.098877	0.006714	0.005646	0.03479	0.44678	-0.47867	0.025635	-0.005341	-0.016174	-0.0177	-0.025635	0.010376	-0.000458	-0.014496
44.06	-0.002289	-0.00946	0.015869	0.033264	-0.001984	0.039063	0.019226	0.001831	-0.029602	0.007477	-0.10513	-0.001984	0.018616	0.018005	0.032959	-0.055695	0.007629	-0.084381	-0.3598	-0.040283	-0.003967	0.062561	0.31418	-0.28656	0.37552	-0.014496	-0.029449	-0.020142	-0.044861	0.025787	-0.000305	-0.00824
44.061	0.005646	-0.003967	0.037537	0.014954	0.005035	0.041504	0.016174	0.002441	-0.016174	0.014954	-0.084229	-0.005188	-0.011902	0.00412	0.05188	-0.058899	-0.021515	-0.076752	-0.16464	-0.087738	-0.014954	0.074005	0.28442	0.055847	0.35019	-0.004425	-0.095978	-0.010986	-0.12817	0.044708	0.003967	-0.003204
44.062	0.003052	-0.016937	-0.039063	0.018616	0.00946	0.032806	0.014801	0.003204	-0.024872	0.005493	-0.036926	-0.006104	0.014038	0.004883	0.043488	-0.069885	-0.057831	-0.13031	-0.2861	-0.13458	0.056152	0.082703	0.17807	0.063019	0.22812	0.003662	-0.083313	-0.0177	-0.35492	0.045929	-0.000458	-0.005951
44.063	-0.006256	0.003967	-0.15182	0.015106	-0.002441	0.025482	0.016479	-0.010071	-0.023804	-0.021362	-0.014343	-0.009155	-0.010834	-0.00061	0.029602	-0.074921	-0.079803	-0.11643	-0.36011	-0.11047	0.048981	0.11673	0.092773	0.005341	-0.014648	-0.001831	-0.022583	-0.010376	-0.082245	-0.015564	-0.000153	-0.020752
44.064	0.00473	-0.004425	-0.22705	0.010223	0.000305	0.025635	0.038147	-0.002899	-0.015411	-0.036469	-0.003052	0.000916	-0.043335	-0.014038	0.012207	-0.072937	-0.056152	-0.19348	-0.25864	-0.021667	0.096436	0.048523	0.14969	0.17212	-0.20248	0.001831	0.031738	-0.014343	-0.47318	-0.042419	-0.000305	-0.019836
44.065	-0.000916	0.014648	-0.20462	0.011139	0.005035	0.024261	0.071259	0.005188	-0.016937	-0.040283	0.000763	0.00061	-0.042114	-0.031586	-0.029755	-0.061035	-0.026703	-0.20187	-0.41229	0.12985	0.10788	0.018005	-0.21591	0.26169	-0.26855	0.006561	0.059052	-0.005646	-0.12039	-0.079346	-0.001068	-0.016022
44.066	0.002899	0.021667	-0.03006	0.035706	0.005951	0.041504	0.10574	0.002136	-0.012512	0.010681	0.009003	0.003662	-0.062561	-0.047913	-0.027618	-0.050964	0.032501	-0.17609	-0.36606	0.28763	-0.00061	-0.043945	-0.094452	0.2446	-0.21866	-0.002136	0.05661	-0.005646	0.062561	-0.081024	-0.00061	-0.020599
44.067	0.002594	0.037842	0.25513	0.011749	-0.005951	0.032806	0.11612	0.002289	-0.013733	0.021973	-0.004883	0.000458	-0.017548	-0.024261	-0.016937	-0.053864	0.039063	0.015717	-0.060883	0.20447	-0.14481	0.057373	0.29144	-0.084686	0.31647	0.002289	0.076752	-0.008087	-0.38162	-0.05127	-0.000916	-0.013733
44.068	0.005341	-0.012207	0.27618	0.017395	0.00061	0.023499	0.09491	-0.000916	-0.009613	0.015411	0	0.000458	0.005188	-0.019226	-0.017242	-0.054626	0.032501	0.097961	0.42816	0.016327	-0.17395	0.11963	0.03891	-0.2684	0.59677	0.001678	-0.009155	-0.011444	-0.70786	-0.16586	-0.00412	-0.009766
44.069	0	-0.028992	0.083313	0.00885	0.003967	0.027924	0.08316	0.037842	-0.001831	0.023804	-0.004883	0.010834	0.009613	-0.005951	0.033264	-0.055084	0.060272	0.20691	0.5394	-0.048218	0.005951	-0.001221	-0.35309	0.073547	0.4863	-0.011749	-0.1059	-0.005188	0.27084	-0.1384	-0.002899	-0.003052
44.07	-0.00885	-0.03006	0.050812	0.002594	0.004883	0.024414	0.041351	0.038147	-0.007324	0.011597	-0.021973	0.003052	-0.004883	-0.007782	0.009155	-0.056305	0.028534	0.30182	0.37766	0.059052	-0.083466	-0.065613	-0.33035	0.97733	0.16754	-0.014801	-0.063477	0.002594	0.071564	-0.020294	0.002594	-0.014343
